<?xml version="1.0" encoding="UTF-8"?>
<svg width="86px" height="86px" viewBox="0 0 86 86" version="1.1" xmlns="http://www.w3.org/2000/svg" xmlns:xlink="http://www.w3.org/1999/xlink">
    <!-- Generator: Sketch 54.1 (76490) - https://sketchapp.com -->
    <title>contact_us_L</title>
    <desc>Created with Sketch.</desc>
    <g id="contact_us_L" stroke="none" stroke-width="1" fill="none" fill-rule="evenodd" stroke-linecap="round" stroke-linejoin="round">
        <g id="Group-6-Copy-2" transform="translate(18.687500, 10.062500)" stroke="#000000" stroke-width="2.3">
            <path d="M63.559806,23.1815577 L52.6577317,23.1815577 L44.0797231,30.0678061 C43.8854883,30.2235328 43.6190672,30.2525694 43.3960488,30.1423182 C43.1730304,30.032067 43.0336014,29.8023946 43.0382543,29.5529464 L43.0382543,23.1686862 L37.9078664,23.1686862 C36.4911489,23.1686862 35.3426724,22.0161335 35.3426724,20.5943878 L35.3426724,2.57429847 C35.3426724,1.15255268 36.4911489,2.29150032e-13 37.9078664,2.29150032e-13 L63.559806,2.29150032e-13 C64.9765235,2.29150032e-13 66.125,1.15255268 66.125,2.57429847 L66.125,20.5943878 C66.1284128,21.2793616 65.8596594,21.937456 65.3782219,22.4230181 C64.8967843,22.9085802 64.2423659,23.1815663 63.559806,23.1815577 L63.559806,23.1815577 Z" id="Shape-Copy-2" fill="#A5DFF4"></path>
            <path d="M41.5997862,55.3584184 L0,55.3584184 C0.0359396015,52.3041778 0.669505692,49.2867826 1.86469869,46.4776827 C3.16998777,43.8551657 8.62822723,42.0373149 15.479663,39.4923238 C17.3310424,38.8026099 17.0273629,33.9505523 16.2068955,33.0443002 C13.5597871,30.1717772 12.2610202,26.3015271 12.6373294,22.4071999 C12.3999588,19.9297677 13.1993736,17.464786 14.8442719,15.6021307 C16.4891703,13.7394753 18.8315384,12.6467546 21.3108422,12.5854592 C23.7901459,12.6467546 26.1325141,13.7394753 27.7774124,15.6021307 C29.4223107,17.464786 30.2217255,19.9297677 29.9843549,22.4071999 C30.3635142,26.2999405 29.0686965,30.1699747 26.4254443,33.0443002 C25.6049769,33.9505523 25.4075648,38.5171334 27.1526768,39.4923238 C33.6325431,43.1133541 38.1127256,44.6737743 39.4109097,46.4776827 C40.2763658,47.6802883 41.0059913,50.6405335 41.5997862,55.3584184 Z" id="Shape-Copy"></path>
        </g>
    </g>
</svg>